<svg width="129" height="124" viewBox="0 0 129 124" fill="none" xmlns="http://www.w3.org/2000/svg">
<g filter="url(#filter0_d_1_270)">
<g filter="url(#filter1_ddi_1_270)">
<path d="M56.1824 64.1196C55.3848 63.9046 54.9859 63.797 54.6814 63.5712C54.4237 63.3801 54.2157 63.1298 54.075 62.8414C53.9088 62.5007 53.8762 62.0889 53.8108 61.2653L53.4443 56.6451C53.4103 56.2166 53.3933 56.0024 53.4205 55.7944C53.4436 55.6175 53.4902 55.4445 53.5592 55.28C53.6403 55.0866 53.7627 54.9099 54.0075 54.5566L56.647 50.7471C57.1175 50.068 57.3528 49.7285 57.6677 49.5175C57.9343 49.3389 58.2399 49.2271 58.5588 49.1915C58.9355 49.1494 59.3344 49.257 60.1321 49.4721L73.3124 53.0261C74.1018 53.2389 74.4966 53.3454 74.7991 53.5682C75.0553 53.7569 75.2627 54.0039 75.4042 54.2888C75.5714 54.6253 75.608 55.0325 75.6812 55.8469L76.0975 60.4804C76.1372 60.9224 76.1571 61.1434 76.13 61.3578C76.1069 61.5402 76.0588 61.7186 75.987 61.8878C75.9027 62.0868 75.7744 62.2679 75.5179 62.63L72.8285 66.4261C72.3559 67.0933 72.1195 67.4269 71.8059 67.6337C71.5403 67.8089 71.2367 67.9181 70.9205 67.9524C70.5469 67.993 70.1522 67.8865 69.3628 67.6737L56.1824 64.1196Z" fill="url(#paint0_diamond_1_270)"/>
<path d="M56.1824 64.1196C55.3848 63.9046 54.9859 63.797 54.6814 63.5712C54.4237 63.3801 54.2157 63.1298 54.075 62.8414C53.9088 62.5007 53.8762 62.0889 53.8108 61.2653L53.4443 56.6451C53.4103 56.2166 53.3933 56.0024 53.4205 55.7944C53.4436 55.6175 53.4902 55.4445 53.5592 55.28C53.6403 55.0866 53.7627 54.9099 54.0075 54.5566L56.647 50.7471C57.1175 50.068 57.3528 49.7285 57.6677 49.5175C57.9343 49.3389 58.2399 49.2271 58.5588 49.1915C58.9355 49.1494 59.3344 49.257 60.1321 49.4721L73.3124 53.0261C74.1018 53.2389 74.4966 53.3454 74.7991 53.5682C75.0553 53.7569 75.2627 54.0039 75.4042 54.2888C75.5714 54.6253 75.608 55.0325 75.6812 55.8469L76.0975 60.4804C76.1372 60.9224 76.1571 61.1434 76.13 61.3578C76.1069 61.5402 76.0588 61.7186 75.987 61.8878C75.9027 62.0868 75.7744 62.2679 75.5179 62.63L72.8285 66.4261C72.3559 67.0933 72.1195 67.4269 71.8059 67.6337C71.5403 67.8089 71.2367 67.9181 70.9205 67.9524C70.5469 67.993 70.1522 67.8865 69.3628 67.6737L56.1824 64.1196Z" fill="url(#paint1_diamond_1_270)"/>
<path d="M56.1824 64.1196C55.3848 63.9046 54.9859 63.797 54.6814 63.5712C54.4237 63.3801 54.2157 63.1298 54.075 62.8414C53.9088 62.5007 53.8762 62.0889 53.8108 61.2653L53.4443 56.6451C53.4103 56.2166 53.3933 56.0024 53.4205 55.7944C53.4436 55.6175 53.4902 55.4445 53.5592 55.28C53.6403 55.0866 53.7627 54.9099 54.0075 54.5566L56.647 50.7471C57.1175 50.068 57.3528 49.7285 57.6677 49.5175C57.9343 49.3389 58.2399 49.2271 58.5588 49.1915C58.9355 49.1494 59.3344 49.257 60.1321 49.4721L73.3124 53.0261C74.1018 53.2389 74.4966 53.3454 74.7991 53.5682C75.0553 53.7569 75.2627 54.0039 75.4042 54.2888C75.5714 54.6253 75.608 55.0325 75.6812 55.8469L76.0975 60.4804C76.1372 60.9224 76.1571 61.1434 76.13 61.3578C76.1069 61.5402 76.0588 61.7186 75.987 61.8878C75.9027 62.0868 75.7744 62.2679 75.5179 62.63L72.8285 66.4261C72.3559 67.0933 72.1195 67.4269 71.8059 67.6337C71.5403 67.8089 71.2367 67.9181 70.9205 67.9524C70.5469 67.993 70.1522 67.8865 69.3628 67.6737L56.1824 64.1196Z" fill="url(#paint2_linear_1_270)"/>
</g>
<g filter="url(#filter2_i_1_270)">
<path d="M57.5544 63.2998C56.769 63.0881 56.3763 62.9822 56.0747 62.7608C55.8193 62.5733 55.6121 62.3279 55.4702 62.0447C55.3026 61.7102 55.2641 61.3053 55.1871 60.4955L54.8622 57.0766C54.8196 56.628 54.7983 56.4037 54.8253 56.1861C54.8484 56.001 54.8971 55.82 54.9703 55.6484C55.0563 55.4466 55.1875 55.2635 55.4499 54.8971L57.4496 52.105C57.9232 51.4437 58.16 51.113 58.4731 50.9082C58.7382 50.7347 59.0407 50.6267 59.3556 50.593C59.7277 50.5533 60.1204 50.6592 60.9058 50.8709L72.212 53.9196C73.0179 54.1369 73.4208 54.2456 73.7272 54.4742C73.9865 54.6678 74.195 54.9214 74.3348 55.2132C74.4999 55.558 74.5286 55.9744 74.5861 56.807L74.8202 60.2014C74.8488 60.6166 74.8631 60.8243 74.836 61.0258C74.8129 61.1973 74.7677 61.365 74.7015 61.5248C74.6236 61.7127 74.5068 61.885 74.2733 62.2295L72.3645 65.0461C71.8962 65.737 71.6621 66.0824 71.346 66.2975C71.0784 66.4795 70.7707 66.5939 70.4492 66.6308C70.0694 66.6745 69.6665 66.5658 68.8606 66.3485L57.5544 63.2998Z" fill="#E3F0FF"/>
</g>
<g filter="url(#filter3_dd_1_270)">
<path d="M59.8884 62.3871C59.1575 62.19 58.792 62.0915 58.504 61.8894C58.2599 61.7182 58.0572 61.4946 57.9106 61.2349C57.7377 60.9285 57.6754 60.5551 57.5507 59.8084L57.2648 58.096C57.1747 57.5562 57.1296 57.2863 57.1549 57.0245C57.1763 56.802 57.2349 56.5847 57.3282 56.3816C57.438 56.1425 57.6127 55.9319 57.9619 55.5106L59.07 54.174C59.5532 53.5912 59.7947 53.2998 60.0983 53.1218C60.3555 52.971 60.6431 52.8797 60.9402 52.8544C61.2908 52.8245 61.6563 52.9231 62.3872 53.1202L69.9853 55.1689C70.7422 55.373 71.1206 55.4751 71.4153 55.6863C71.6648 55.8653 71.8698 56.0993 72.0144 56.3702C72.1851 56.6901 72.2365 57.0787 72.3392 57.8558L72.5635 59.5516C72.6291 60.0476 72.6618 60.2956 72.6354 60.5362C72.613 60.7407 72.5591 60.9405 72.4757 61.1285C72.3776 61.3498 72.2246 61.5477 71.9185 61.9435L70.8721 63.2967C70.3926 63.9168 70.1528 64.2268 69.8445 64.4175C69.5833 64.5791 69.2884 64.6783 68.9827 64.7075C68.6218 64.742 68.2434 64.64 67.4865 64.4359L59.8884 62.3871Z" fill="url(#paint3_diamond_1_270)"/>
<path d="M59.8884 62.3871C59.1575 62.19 58.792 62.0915 58.504 61.8894C58.2599 61.7182 58.0572 61.4946 57.9106 61.2349C57.7377 60.9285 57.6754 60.5551 57.5507 59.8084L57.2648 58.096C57.1747 57.5562 57.1296 57.2863 57.1549 57.0245C57.1763 56.802 57.2349 56.5847 57.3282 56.3816C57.438 56.1425 57.6127 55.9319 57.9619 55.5106L59.07 54.174C59.5532 53.5912 59.7947 53.2998 60.0983 53.1218C60.3555 52.971 60.6431 52.8797 60.9402 52.8544C61.2908 52.8245 61.6563 52.9231 62.3872 53.1202L69.9853 55.1689C70.7422 55.373 71.1206 55.4751 71.4153 55.6863C71.6648 55.8653 71.8698 56.0993 72.0144 56.3702C72.1851 56.6901 72.2365 57.0787 72.3392 57.8558L72.5635 59.5516C72.6291 60.0476 72.6618 60.2956 72.6354 60.5362C72.613 60.7407 72.5591 60.9405 72.4757 61.1285C72.3776 61.3498 72.2246 61.5477 71.9185 61.9435L70.8721 63.2967C70.3926 63.9168 70.1528 64.2268 69.8445 64.4175C69.5833 64.5791 69.2884 64.6783 68.9827 64.7075C68.6218 64.742 68.2434 64.64 67.4865 64.4359L59.8884 62.3871Z" fill="url(#paint4_linear_1_270)"/>
</g>
<path d="M62.4952 58.0267C63.1307 58.01 64.6029 57.8023 65.4581 56.32C65.4995 56.2482 65.6159 56.2762 65.6201 56.3591C65.6532 57.0157 65.9009 58.431 67.3453 59.3273C67.4166 59.3716 67.3899 59.4747 67.3061 59.4775C66.6848 59.4987 65.2811 59.7228 64.3331 61.2184C64.289 61.2878 64.1745 61.2559 64.1728 61.1738C64.1596 60.5316 63.9468 59.1266 62.454 58.1761C62.3835 58.1313 62.4117 58.0289 62.4952 58.0267Z" fill="white"/>
<g filter="url(#filter4_f_1_270)">
<path d="M62.4952 58.0267C63.1307 58.01 64.6029 57.8023 65.4581 56.32C65.4995 56.2482 65.6159 56.2762 65.6201 56.3591C65.6532 57.0157 65.9009 58.431 67.3453 59.3273C67.4166 59.3716 67.3899 59.4747 67.3061 59.4775C66.6848 59.4987 65.2811 59.7228 64.3331 61.2184C64.289 61.2878 64.1745 61.2559 64.1728 61.1738C64.1596 60.5316 63.9468 59.1266 62.454 58.1761C62.3835 58.1313 62.4117 58.0289 62.4952 58.0267Z" fill="white" fill-opacity="0.9"/>
</g>
</g>
<defs>
<filter id="filter0_d_1_270" x="49.407" y="47.1825" width="30.7355" height="26.7784" filterUnits="userSpaceOnUse" color-interpolation-filters="sRGB">
<feFlood flood-opacity="0" result="BackgroundImageFix"/>
<feColorMatrix in="SourceAlpha" type="matrix" values="0 0 0 0 0 0 0 0 0 0 0 0 0 0 0 0 0 0 127 0" result="hardAlpha"/>
<feOffset dy="2"/>
<feGaussianBlur stdDeviation="2"/>
<feComposite in2="hardAlpha" operator="out"/>
<feColorMatrix type="matrix" values="0 0 0 0 0.247059 0 0 0 0 0.592157 0 0 0 0 0.835294 0 0 0 0.1 0"/>
<feBlend mode="normal" in2="BackgroundImageFix" result="effect1_dropShadow_1_270"/>
<feBlend mode="normal" in="SourceGraphic" in2="effect1_dropShadow_1_270" result="shape"/>
</filter>
<filter id="filter1_ddi_1_270" x="0.561012" y="-1.00311" width="128.427" height="124.47" filterUnits="userSpaceOnUse" color-interpolation-filters="sRGB">
<feFlood flood-opacity="0" result="BackgroundImageFix"/>
<feColorMatrix in="SourceAlpha" type="matrix" values="0 0 0 0 0 0 0 0 0 0 0 0 0 0 0 0 0 0 127 0" result="hardAlpha"/>
<feOffset dy="2.66037"/>
<feGaussianBlur stdDeviation="22.1928"/>
<feComposite in2="hardAlpha" operator="out"/>
<feColorMatrix type="matrix" values="0 0 0 0 0.843137 0 0 0 0 0.886275 0 0 0 0 0.92549 0 0 0 0.34 0"/>
<feBlend mode="normal" in2="BackgroundImageFix" result="effect1_dropShadow_1_270"/>
<feColorMatrix in="SourceAlpha" type="matrix" values="0 0 0 0 0 0 0 0 0 0 0 0 0 0 0 0 0 0 127 0" result="hardAlpha"/>
<feOffset dy="2.66037"/>
<feGaussianBlur stdDeviation="26.423"/>
<feComposite in2="hardAlpha" operator="out"/>
<feColorMatrix type="matrix" values="0 0 0 0 1 0 0 0 0 1 0 0 0 0 1 0 0 0 0.25 0"/>
<feBlend mode="normal" in2="effect1_dropShadow_1_270" result="effect2_dropShadow_1_270"/>
<feBlend mode="normal" in="SourceGraphic" in2="effect2_dropShadow_1_270" result="shape"/>
<feColorMatrix in="SourceAlpha" type="matrix" values="0 0 0 0 0 0 0 0 0 0 0 0 0 0 0 0 0 0 127 0" result="hardAlpha"/>
<feOffset/>
<feGaussianBlur stdDeviation="9.73043"/>
<feComposite in2="hardAlpha" operator="arithmetic" k2="-1" k3="1"/>
<feColorMatrix type="matrix" values="0 0 0 0 1 0 0 0 0 1 0 0 0 0 1 0 0 0 1 0"/>
<feBlend mode="normal" in2="shape" result="effect3_innerShadow_1_270"/>
</filter>
<filter id="filter2_i_1_270" x="54.8134" y="50.5848" width="20.0371" height="18.95" filterUnits="userSpaceOnUse" color-interpolation-filters="sRGB">
<feFlood flood-opacity="0" result="BackgroundImageFix"/>
<feBlend mode="normal" in="SourceGraphic" in2="BackgroundImageFix" result="shape"/>
<feColorMatrix in="SourceAlpha" type="matrix" values="0 0 0 0 0 0 0 0 0 0 0 0 0 0 0 0 0 0 127 0" result="hardAlpha"/>
<feOffset dy="2.89448"/>
<feGaussianBlur stdDeviation="1.44724"/>
<feComposite in2="hardAlpha" operator="arithmetic" k2="-1" k3="1"/>
<feColorMatrix type="matrix" values="0 0 0 0 0 0 0 0 0 0 0 0 0 0 0 0 0 0 0.25 0"/>
<feBlend mode="normal" in2="shape" result="effect1_innerShadow_1_270"/>
</filter>
<filter id="filter3_dd_1_270" x="2.60232" y="1.04942" width="124.588" height="120.956" filterUnits="userSpaceOnUse" color-interpolation-filters="sRGB">
<feFlood flood-opacity="0" result="BackgroundImageFix"/>
<feColorMatrix in="SourceAlpha" type="matrix" values="0 0 0 0 0 0 0 0 0 0 0 0 0 0 0 0 0 0 127 0" result="hardAlpha"/>
<feOffset dy="2.74593"/>
<feGaussianBlur stdDeviation="22.9066"/>
<feComposite in2="hardAlpha" operator="out"/>
<feColorMatrix type="matrix" values="0 0 0 0 0.827451 0 0 0 0 0.87451 0 0 0 0 0.913725 0 0 0 0.39 0"/>
<feBlend mode="normal" in2="BackgroundImageFix" result="effect1_dropShadow_1_270"/>
<feColorMatrix in="SourceAlpha" type="matrix" values="0 0 0 0 0 0 0 0 0 0 0 0 0 0 0 0 0 0 127 0" result="hardAlpha"/>
<feOffset dy="2.74593"/>
<feGaussianBlur stdDeviation="27.2728"/>
<feComposite in2="hardAlpha" operator="out"/>
<feColorMatrix type="matrix" values="0 0 0 0 1 0 0 0 0 1 0 0 0 0 1 0 0 0 0.25 0"/>
<feBlend mode="normal" in2="effect1_dropShadow_1_270" result="effect2_dropShadow_1_270"/>
<feBlend mode="normal" in="SourceGraphic" in2="effect2_dropShadow_1_270" result="shape"/>
</filter>
<filter id="filter4_f_1_270" x="59.2211" y="53.086" width="11.3583" height="11.3633" filterUnits="userSpaceOnUse" color-interpolation-filters="sRGB">
<feFlood flood-opacity="0" result="BackgroundImageFix"/>
<feBlend mode="normal" in="SourceGraphic" in2="BackgroundImageFix" result="shape"/>
<feGaussianBlur stdDeviation="1.59643" result="effect1_foregroundBlur_1_270"/>
</filter>
<radialGradient id="paint0_diamond_1_270" cx="0" cy="0" r="1" gradientUnits="userSpaceOnUse" gradientTransform="translate(64.0901 68.8052) rotate(-92.3793) scale(24.9238 24.9238)">
<stop offset="0.421875" stop-color="#A349EF"/>
<stop offset="1" stop-color="#FF65E6"/>
</radialGradient>
<radialGradient id="paint1_diamond_1_270" cx="0" cy="0" r="1" gradientUnits="userSpaceOnUse" gradientTransform="translate(58.5996 59.9103) rotate(-101.168) scale(11.8944 6.29702)">
<stop stop-color="#FF9FEA"/>
<stop offset="1" stop-color="white" stop-opacity="0"/>
</radialGradient>
<linearGradient id="paint2_linear_1_270" x1="65.7079" y1="51.5711" x2="66.917" y2="66.9282" gradientUnits="userSpaceOnUse">
<stop stop-color="#7A96AC"/>
<stop offset="0.18" stop-color="#EAEFF3"/>
<stop offset="0.315" stop-color="#C2D4E1"/>
<stop offset="0.491919" stop-color="white"/>
<stop offset="0.615" stop-color="#D4DEE5"/>
<stop offset="0.785" stop-color="#ABBDC8"/>
<stop offset="0.955" stop-color="#BCCAD7"/>
</linearGradient>
<radialGradient id="paint3_diamond_1_270" cx="0" cy="0" r="1" gradientUnits="userSpaceOnUse" gradientTransform="translate(64.2811 65.1869) rotate(-92.3793) scale(15.7683 15.7683)">
<stop offset="0.421875" stop-color="#A349EF"/>
<stop offset="1" stop-color="#FF65E6"/>
</radialGradient>
<linearGradient id="paint4_linear_1_270" x1="66.1303" y1="54.1294" x2="63.6315" y2="63.3964" gradientUnits="userSpaceOnUse">
<stop stop-color="#38A3CA"/>
<stop offset="0.09" stop-color="#39A6C9"/>
<stop offset="0.205" stop-color="#4193D9"/>
<stop offset="0.35" stop-color="#4191D8"/>
<stop offset="0.635" stop-color="#4391DB"/>
<stop offset="0.73" stop-color="#39A5CA"/>
<stop offset="0.9" stop-color="#3F93D8"/>
<stop offset="1" stop-color="#38A0CC"/>
</linearGradient>
</defs>
</svg>
