<svg width="138" height="132" viewBox="0 0 138 132" fill="none" xmlns="http://www.w3.org/2000/svg">
<g filter="url(#filter0_d_1_260)">
<g filter="url(#filter1_ddi_1_260)">
<path d="M64.683 75.6851C62.761 76.2114 61.8 76.4746 60.8909 76.3767C60.1214 76.2938 59.3831 76.027 58.7384 75.5987C57.9768 75.0928 57.4061 74.2761 56.2647 72.6425L54.5236 70.1505C53.9297 69.3006 53.6328 68.8756 53.4354 68.4099C53.2675 68.0137 53.1533 67.5969 53.0959 67.1704C53.0285 66.6691 53.0675 66.1521 53.1454 65.1182L53.3739 62.087C53.5237 60.0999 53.5986 59.1063 53.9962 58.283C54.3327 57.586 54.832 56.9802 55.4519 56.5168C56.1842 55.9694 57.1452 55.7062 59.0672 55.1798L73.1168 51.3321C75.0189 50.8112 75.97 50.5507 76.8715 50.6449C77.6346 50.7246 78.3678 50.9853 79.01 51.4052C79.7686 51.9012 80.3418 52.7036 81.4882 54.3084L83.262 56.7913C83.8842 57.6623 84.1953 58.0978 84.4007 58.577C84.5754 58.9846 84.6931 59.4143 84.7505 59.854C84.8179 60.371 84.7721 60.9043 84.6805 61.9707L84.4194 65.011C84.2506 66.9759 84.1662 67.9584 83.7662 68.7717C83.4275 69.4603 82.9295 70.0581 82.3134 70.5156C81.5857 71.0559 80.6347 71.3164 78.7325 71.8373L64.683 75.6851Z" fill="url(#paint0_diamond_1_260)"/>
<path d="M64.683 75.6851C62.761 76.2114 61.8 76.4746 60.8909 76.3767C60.1214 76.2938 59.3831 76.027 58.7384 75.5987C57.9768 75.0928 57.4061 74.2761 56.2647 72.6425L54.5236 70.1505C53.9297 69.3006 53.6328 68.8756 53.4354 68.4099C53.2675 68.0137 53.1533 67.5969 53.0959 67.1704C53.0285 66.6691 53.0675 66.1521 53.1454 65.1182L53.3739 62.087C53.5237 60.0999 53.5986 59.1063 53.9962 58.283C54.3327 57.586 54.832 56.9802 55.4519 56.5168C56.1842 55.9694 57.1452 55.7062 59.0672 55.1798L73.1168 51.3321C75.0189 50.8112 75.97 50.5507 76.8715 50.6449C77.6346 50.7246 78.3678 50.9853 79.01 51.4052C79.7686 51.9012 80.3418 52.7036 81.4882 54.3084L83.262 56.7913C83.8842 57.6623 84.1953 58.0978 84.4007 58.577C84.5754 58.9846 84.6931 59.4143 84.7505 59.854C84.8179 60.371 84.7721 60.9043 84.6805 61.9707L84.4194 65.011C84.2506 66.9759 84.1662 67.9584 83.7662 68.7717C83.4275 69.4603 82.9295 70.0581 82.3134 70.5156C81.5857 71.0559 80.6347 71.3164 78.7325 71.8373L64.683 75.6851Z" fill="url(#paint1_diamond_1_260)"/>
<path d="M64.683 75.6851C62.761 76.2114 61.8 76.4746 60.8909 76.3767C60.1214 76.2938 59.3831 76.027 58.7384 75.5987C57.9768 75.0928 57.4061 74.2761 56.2647 72.6425L54.5236 70.1505C53.9297 69.3006 53.6328 68.8756 53.4354 68.4099C53.2675 68.0137 53.1533 67.5969 53.0959 67.1704C53.0285 66.6691 53.0675 66.1521 53.1454 65.1182L53.3739 62.087C53.5237 60.0999 53.5986 59.1063 53.9962 58.283C54.3327 57.586 54.832 56.9802 55.4519 56.5168C56.1842 55.9694 57.1452 55.7062 59.0672 55.1798L73.1168 51.3321C75.0189 50.8112 75.97 50.5507 76.8715 50.6449C77.6346 50.7246 78.3678 50.9853 79.01 51.4052C79.7686 51.9012 80.3418 52.7036 81.4882 54.3084L83.262 56.7913C83.8842 57.6623 84.1953 58.0978 84.4007 58.577C84.5754 58.9846 84.6931 59.4143 84.7505 59.854C84.8179 60.371 84.7721 60.9043 84.6805 61.9707L84.4194 65.011C84.2506 66.9759 84.1662 67.9584 83.7662 68.7717C83.4275 69.4603 82.9295 70.0581 82.3134 70.5156C81.5857 71.0559 80.6347 71.3164 78.7325 71.8373L64.683 75.6851Z" fill="url(#paint2_linear_1_260)"/>
</g>
<g filter="url(#filter2_i_1_260)">
<path d="M65.7233 73.731C63.8309 74.2492 62.8847 74.5084 61.987 74.416C61.2269 74.3378 60.4963 74.0801 59.8553 73.6643C59.0982 73.1731 58.5238 72.3778 57.3751 70.7871L56.5918 69.7024C55.9554 68.8212 55.6372 68.3806 55.4278 67.8948C55.2497 67.4816 55.1303 67.0455 55.073 66.5993C55.0057 66.0745 55.055 65.5333 55.1535 64.4508L55.2749 63.1183C55.4528 61.1643 55.5418 60.1873 55.943 59.3789C56.2827 58.6945 56.78 58.1005 57.3942 57.646C58.1196 57.1091 59.0658 56.8499 60.9582 56.3317L72.3719 53.2058C74.3136 52.6741 75.2844 52.4082 76.201 52.5098C76.9767 52.5958 77.7201 52.8688 78.3671 53.3054C79.1316 53.8211 79.6996 54.6521 80.8356 56.3142L81.5836 57.4086C82.1501 58.2374 82.4334 58.6518 82.623 59.1042C82.7843 59.4891 82.895 59.8933 82.9523 60.3066C83.0196 60.7925 82.9871 61.2934 82.9219 62.2952L82.8359 63.6181C82.7053 65.627 82.64 66.6315 82.245 67.4648C81.9106 68.1701 81.4101 68.7837 80.7864 69.253C80.0495 69.8075 79.0787 70.0733 77.137 70.6051L65.7233 73.731Z" fill="#E3F0FF"/>
</g>
<g filter="url(#filter3_dd_1_260)">
<path d="M66.4014 71.3824C65.1289 71.7309 64.4927 71.9051 63.8815 71.8555C63.3636 71.8135 62.8616 71.6562 62.4124 71.3952C61.8821 71.0871 61.4591 70.5809 60.6131 69.5686L59.8279 68.629C59.2163 67.8972 58.9105 67.5313 58.7175 67.1154C58.5535 66.7621 58.4499 66.3838 58.411 65.9962C58.3652 65.54 58.4419 65.0694 58.5952 64.1281L58.7922 62.9195C59.0043 61.6174 59.1104 60.9663 59.4096 60.4311C59.6632 59.9775 60.015 59.5864 60.4392 59.2864C60.9398 58.9323 61.576 58.758 62.8485 58.4096L72.0975 55.8766C73.4151 55.5157 74.0739 55.3353 74.7031 55.3929C75.2361 55.4417 75.7506 55.6126 76.2069 55.8923C76.7456 56.2226 77.1655 56.7613 78.0055 57.8387L78.7472 58.7902C79.2833 59.4778 79.5513 59.8216 79.7238 60.2066C79.8705 60.5337 79.9657 60.8816 80.0063 61.2378C80.054 61.6569 79.9985 62.0893 79.8876 62.9542L79.7342 64.1508C79.5604 65.5058 79.4735 66.1834 79.1783 66.742C78.9282 67.2151 78.5725 67.6244 78.1388 67.9379C77.6268 68.3081 76.968 68.4885 75.6503 68.8494L66.4014 71.3824Z" fill="url(#paint3_diamond_1_260)"/>
<path d="M66.4014 71.3824C65.1289 71.7309 64.4927 71.9051 63.8815 71.8555C63.3636 71.8135 62.8616 71.6562 62.4124 71.3952C61.8821 71.0871 61.4591 70.5809 60.6131 69.5686L59.8279 68.629C59.2163 67.8972 58.9105 67.5313 58.7175 67.1154C58.5535 66.7621 58.4499 66.3838 58.411 65.9962C58.3652 65.54 58.4419 65.0694 58.5952 64.1281L58.7922 62.9195C59.0043 61.6174 59.1104 60.9663 59.4096 60.4311C59.6632 59.9775 60.015 59.5864 60.4392 59.2864C60.9398 58.9323 61.576 58.758 62.8485 58.4096L72.0975 55.8766C73.4151 55.5157 74.0739 55.3353 74.7031 55.3929C75.2361 55.4417 75.7506 55.6126 76.2069 55.8923C76.7456 56.2226 77.1655 56.7613 78.0055 57.8387L78.7472 58.7902C79.2833 59.4778 79.5513 59.8216 79.7238 60.2066C79.8705 60.5337 79.9657 60.8816 80.0063 61.2378C80.054 61.6569 79.9985 62.0893 79.8876 62.9542L79.7342 64.1508C79.5604 65.5058 79.4735 66.1834 79.1783 66.742C78.9282 67.2151 78.5725 67.6244 78.1388 67.9379C77.6268 68.3081 76.968 68.4885 75.6503 68.8494L66.4014 71.3824Z" fill="url(#paint4_linear_1_260)"/>
</g>
<path d="M65.7784 64.4497C66.5346 63.9787 68.1667 62.6836 68.1489 60.2853C68.148 60.1691 68.3086 60.1204 68.3725 60.2176C68.8782 60.9878 70.1815 62.5227 72.563 62.5816C72.6805 62.5845 72.7214 62.728 72.6221 62.7909C71.8862 63.2571 70.3485 64.5236 70.2635 67.0038C70.2595 67.1189 70.0985 67.1616 70.0383 67.0635C69.5668 66.2967 68.313 64.7495 65.8345 64.6595C65.7175 64.6553 65.679 64.5116 65.7784 64.4497Z" fill="white"/>
<g filter="url(#filter4_f_1_260)">
<path d="M65.7784 64.4497C66.5346 63.9787 68.1667 62.6836 68.1489 60.2853C68.148 60.1691 68.3086 60.1204 68.3725 60.2176C68.8782 60.9878 70.1815 62.5227 72.563 62.5816C72.6805 62.5845 72.7214 62.728 72.6221 62.7909C71.8862 63.2571 70.3485 64.5236 70.2635 67.0038C70.2595 67.1189 70.0985 67.1616 70.0383 67.0635C69.5668 66.2967 68.313 64.7495 65.8345 64.6595C65.7175 64.6553 65.679 64.5116 65.7784 64.4497Z" fill="white" fill-opacity="0.9"/>
</g>
</g>
<defs>
<filter id="filter0_d_1_260" x="49.0613" y="48.6259" width="39.7213" height="33.771" filterUnits="userSpaceOnUse" color-interpolation-filters="sRGB">
<feFlood flood-opacity="0" result="BackgroundImageFix"/>
<feColorMatrix in="SourceAlpha" type="matrix" values="0 0 0 0 0 0 0 0 0 0 0 0 0 0 0 0 0 0 127 0" result="hardAlpha"/>
<feOffset dy="2"/>
<feGaussianBlur stdDeviation="2"/>
<feComposite in2="hardAlpha" operator="out"/>
<feColorMatrix type="matrix" values="0 0 0 0 0.247059 0 0 0 0 0.592157 0 0 0 0 0.835294 0 0 0 0.1 0"/>
<feBlend mode="normal" in2="BackgroundImageFix" result="effect1_dropShadow_1_260"/>
<feBlend mode="normal" in="SourceGraphic" in2="effect1_dropShadow_1_260" result="shape"/>
</filter>
<filter id="filter1_ddi_1_260" x="0.215309" y="0.440282" width="137.413" height="131.463" filterUnits="userSpaceOnUse" color-interpolation-filters="sRGB">
<feFlood flood-opacity="0" result="BackgroundImageFix"/>
<feColorMatrix in="SourceAlpha" type="matrix" values="0 0 0 0 0 0 0 0 0 0 0 0 0 0 0 0 0 0 127 0" result="hardAlpha"/>
<feOffset dy="2.66037"/>
<feGaussianBlur stdDeviation="22.1928"/>
<feComposite in2="hardAlpha" operator="out"/>
<feColorMatrix type="matrix" values="0 0 0 0 0.843137 0 0 0 0 0.886275 0 0 0 0 0.92549 0 0 0 0.34 0"/>
<feBlend mode="normal" in2="BackgroundImageFix" result="effect1_dropShadow_1_260"/>
<feColorMatrix in="SourceAlpha" type="matrix" values="0 0 0 0 0 0 0 0 0 0 0 0 0 0 0 0 0 0 127 0" result="hardAlpha"/>
<feOffset dy="2.66037"/>
<feGaussianBlur stdDeviation="26.423"/>
<feComposite in2="hardAlpha" operator="out"/>
<feColorMatrix type="matrix" values="0 0 0 0 1 0 0 0 0 1 0 0 0 0 1 0 0 0 0.25 0"/>
<feBlend mode="normal" in2="effect1_dropShadow_1_260" result="effect2_dropShadow_1_260"/>
<feBlend mode="normal" in="SourceGraphic" in2="effect2_dropShadow_1_260" result="shape"/>
<feColorMatrix in="SourceAlpha" type="matrix" values="0 0 0 0 0 0 0 0 0 0 0 0 0 0 0 0 0 0 127 0" result="hardAlpha"/>
<feOffset/>
<feGaussianBlur stdDeviation="9.73043"/>
<feComposite in2="hardAlpha" operator="arithmetic" k2="-1" k3="1"/>
<feColorMatrix type="matrix" values="0 0 0 0 1 0 0 0 0 1 0 0 0 0 1 0 0 0 1 0"/>
<feBlend mode="normal" in2="shape" result="effect3_innerShadow_1_260"/>
</filter>
<filter id="filter2_i_1_260" x="55.042" y="52.4885" width="27.9475" height="24.8404" filterUnits="userSpaceOnUse" color-interpolation-filters="sRGB">
<feFlood flood-opacity="0" result="BackgroundImageFix"/>
<feBlend mode="normal" in="SourceGraphic" in2="BackgroundImageFix" result="shape"/>
<feColorMatrix in="SourceAlpha" type="matrix" values="0 0 0 0 0 0 0 0 0 0 0 0 0 0 0 0 0 0 127 0" result="hardAlpha"/>
<feOffset dy="2.89448"/>
<feGaussianBlur stdDeviation="1.44724"/>
<feComposite in2="hardAlpha" operator="arithmetic" k2="-1" k3="1"/>
<feColorMatrix type="matrix" values="0 0 0 0 0 0 0 0 0 0 0 0 0 0 0 0 0 0 0.25 0"/>
<feBlend mode="normal" in2="shape" result="effect1_innerShadow_1_260"/>
</filter>
<filter id="filter3_dd_1_260" x="3.8522" y="3.58265" width="130.717" height="125.573" filterUnits="userSpaceOnUse" color-interpolation-filters="sRGB">
<feFlood flood-opacity="0" result="BackgroundImageFix"/>
<feColorMatrix in="SourceAlpha" type="matrix" values="0 0 0 0 0 0 0 0 0 0 0 0 0 0 0 0 0 0 127 0" result="hardAlpha"/>
<feOffset dy="2.74593"/>
<feGaussianBlur stdDeviation="22.9066"/>
<feComposite in2="hardAlpha" operator="out"/>
<feColorMatrix type="matrix" values="0 0 0 0 0.827451 0 0 0 0 0.87451 0 0 0 0 0.913725 0 0 0 0.39 0"/>
<feBlend mode="normal" in2="BackgroundImageFix" result="effect1_dropShadow_1_260"/>
<feColorMatrix in="SourceAlpha" type="matrix" values="0 0 0 0 0 0 0 0 0 0 0 0 0 0 0 0 0 0 127 0" result="hardAlpha"/>
<feOffset dy="2.74593"/>
<feGaussianBlur stdDeviation="27.2728"/>
<feComposite in2="hardAlpha" operator="out"/>
<feColorMatrix type="matrix" values="0 0 0 0 1 0 0 0 0 1 0 0 0 0 1 0 0 0 0.25 0"/>
<feBlend mode="normal" in2="effect1_dropShadow_1_260" result="effect2_dropShadow_1_260"/>
<feBlend mode="normal" in="SourceGraphic" in2="effect2_dropShadow_1_260" result="shape"/>
</filter>
<filter id="filter4_f_1_260" x="62.5286" y="56.9728" width="13.3424" height="13.3381" filterUnits="userSpaceOnUse" color-interpolation-filters="sRGB">
<feFlood flood-opacity="0" result="BackgroundImageFix"/>
<feBlend mode="normal" in="SourceGraphic" in2="BackgroundImageFix" result="shape"/>
<feGaussianBlur stdDeviation="1.59643" result="effect1_foregroundBlur_1_260"/>
</filter>
<radialGradient id="paint0_diamond_1_260" cx="0" cy="0" r="1" gradientUnits="userSpaceOnUse" gradientTransform="translate(75.351 76.3455) rotate(-122.786) scale(34.9283 34.9283)">
<stop offset="0.421875" stop-color="#A349EF"/>
<stop offset="1" stop-color="#FF65E6"/>
</radialGradient>
<radialGradient id="paint1_diamond_1_260" cx="0" cy="0" r="1" gradientUnits="userSpaceOnUse" gradientTransform="translate(62.4058 69.4891) rotate(-131.575) scale(16.6688 8.82466)">
<stop stop-color="#FF9FEA"/>
<stop offset="1" stop-color="white" stop-opacity="0"/>
</radialGradient>
<linearGradient id="paint2_linear_1_260" x1="65.0822" y1="54.368" x2="77.4363" y2="72.0717" gradientUnits="userSpaceOnUse">
<stop stop-color="#7A96AC"/>
<stop offset="0.18" stop-color="#EAEFF3"/>
<stop offset="0.315" stop-color="#C2D4E1"/>
<stop offset="0.491919" stop-color="white"/>
<stop offset="0.615" stop-color="#D4DEE5"/>
<stop offset="0.785" stop-color="#ABBDC8"/>
<stop offset="0.955" stop-color="#BCCAD7"/>
</linearGradient>
<radialGradient id="paint3_diamond_1_260" cx="0" cy="0" r="1" gradientUnits="userSpaceOnUse" gradientTransform="translate(73.0154 71.8372) rotate(-122.786) scale(22.0977 22.0977)">
<stop offset="0.421875" stop-color="#A349EF"/>
<stop offset="1" stop-color="#FF65E6"/>
</radialGradient>
<linearGradient id="paint4_linear_1_260" x1="67.4074" y1="57.161" x2="70.9603" y2="70.1339" gradientUnits="userSpaceOnUse">
<stop stop-color="#38A3CA"/>
<stop offset="0.09" stop-color="#39A6C9"/>
<stop offset="0.205" stop-color="#4193D9"/>
<stop offset="0.35" stop-color="#4191D8"/>
<stop offset="0.635" stop-color="#4391DB"/>
<stop offset="0.73" stop-color="#39A5CA"/>
<stop offset="0.9" stop-color="#3F93D8"/>
<stop offset="1" stop-color="#38A0CC"/>
</linearGradient>
</defs>
</svg>
