<svg width="21" height="21" viewBox="0 0 21 21" fill="none" xmlns="http://www.w3.org/2000/svg">
<path fill-rule="evenodd" clip-rule="evenodd" d="M2.99721 7.03143H0.649452C0.290769 7.03143 0 6.7416 0 6.38408V5.08938C0 4.73186 0.29077 4.44203 0.649452 4.44203H3.08324C3.52825 2.03239 5.64665 0.206772 8.19283 0.206772H15.8044C18.6738 0.206772 21 2.5254 21 5.38556V15.028C21 17.8881 18.6738 20.2068 15.8044 20.2068H8.19283C5.64669 20.2068 3.52832 18.3812 3.08326 15.9716H0.649509C0.290827 15.9716 5.74256e-05 15.6818 5.74256e-05 15.3243V14.0296C5.74256e-05 13.6721 0.290827 13.3822 0.649509 13.3822H2.99721V11.5015H0.649509C0.290827 11.5015 5.74256e-05 11.2117 5.74256e-05 10.8542V9.55946C5.74256e-05 9.20194 0.290827 8.91211 0.649509 8.91211H2.99721V7.03143ZM11.9984 8.47607C13.2228 8.47607 14.2152 7.48679 14.2152 6.26645C14.2152 5.04611 13.2228 4.05683 11.9984 4.05683C10.7741 4.05683 9.78165 5.04611 9.78165 6.26645C9.78165 7.48679 10.7741 8.47607 11.9984 8.47607ZM16.3309 13.6461C16.3309 15.0632 14.4019 16.2119 12.0224 16.2119C9.64286 16.2119 7.72226 15.2502 7.66606 13.6694C7.5351 11.9516 9.64286 10.7106 12.0224 10.7106C14.4019 10.7106 16.4617 12.1022 16.3309 13.6461Z" fill="#7E7D84"/>
</svg>
