<svg width="25" height="25" viewBox="0 0 25 25" fill="none" xmlns="http://www.w3.org/2000/svg">
<g filter="url(#filter0_d_1_241)">
<mask id="path-1-outside-1_1_241" maskUnits="userSpaceOnUse" x="-0.0800781" y="0.583618" width="24" height="24" fill="black">
<rect fill="white" x="-0.0800781" y="0.583618" width="24" height="24"/>
<path d="M14.0094 3.83398C9.01619 2.69453 4.3253 5.53237 3.21719 10.5585C2.63757 13.1875 2.86728 15.3667 4.24599 17.3294C4.36171 17.4943 4.40839 17.6989 4.37075 17.8979L3.72001 20.7958C3.62262 21.311 4.0687 21.7625 4.57448 21.6608L7.18184 20.3235C7.34573 20.2907 7.51559 20.3164 7.66304 20.3962C8.42164 20.8069 9.25553 21.1237 10.1524 21.3284C15.1456 22.4678 19.8365 19.63 20.9446 14.6039C22.0527 9.57774 19.0026 4.97342 14.0094 3.83398Z"/>
</mask>
<path d="M14.0094 3.83398C9.01619 2.69453 4.3253 5.53237 3.21719 10.5585C2.63757 13.1875 2.86728 15.3667 4.24599 17.3294C4.36171 17.4943 4.40839 17.6989 4.37075 17.8979L3.72001 20.7958C3.62262 21.311 4.0687 21.7625 4.57448 21.6608L7.18184 20.3235C7.34573 20.2907 7.51559 20.3164 7.66304 20.3962C8.42164 20.8069 9.25553 21.1237 10.1524 21.3284C15.1456 22.4678 19.8365 19.63 20.9446 14.6039C22.0527 9.57774 19.0026 4.97342 14.0094 3.83398Z" fill="url(#paint0_linear_1_241)"/>
<path d="M14.0094 3.83398L13.5591 5.80709L14.0094 3.83398ZM4.24599 17.3294L5.90257 16.1668L5.90206 16.1661L4.24599 17.3294ZM4.37075 17.8979L6.3454 18.3414L6.35294 18.3078L6.35932 18.274L4.37075 17.8979ZM3.72001 20.7958L1.74535 20.3524L1.73779 20.386L1.73139 20.4199L3.72001 20.7958ZM4.57448 21.6608L4.97332 23.6449L5.2484 23.5896L5.49806 23.4616L4.57448 21.6608ZM7.18184 20.3235L6.78378 18.3392L6.50828 18.3945L6.25826 18.5227L7.18184 20.3235ZM7.66304 20.3962L6.69913 22.1758L6.69958 22.176L7.66304 20.3962ZM10.1524 21.3284L10.6027 19.3553L10.1524 21.3284ZM14.4596 1.86086C8.4141 0.481279 2.60022 3.95681 1.24082 10.1228L5.19356 10.9942C6.05037 7.10792 9.61829 4.90779 13.5591 5.80709L14.4596 1.86086ZM1.24082 10.1228C0.5782 13.1282 0.793149 15.9349 2.58993 18.4927L5.90206 16.1661C4.9414 14.7985 4.69694 13.2467 5.19356 10.9942L1.24082 10.1228ZM2.58942 18.492C2.40099 18.2235 2.31523 17.8758 2.38217 17.5218L6.35932 18.274C6.50154 17.5221 6.32242 16.765 5.90257 16.1668L2.58942 18.492ZM2.39609 17.4545L1.74535 20.3524L5.69466 21.2392L6.3454 18.3414L2.39609 17.4545ZM1.73139 20.4199C1.378 22.2894 3.00392 24.0408 4.97332 23.6449L4.17563 19.6766C5.13349 19.4841 5.86725 20.3325 5.70862 21.1717L1.73139 20.4199ZM5.49806 23.4616L8.10542 22.1244L6.25826 18.5227L3.6509 19.86L5.49806 23.4616ZM7.5799 22.3078C7.27774 22.3685 6.9659 22.3203 6.69913 22.1758L8.62695 18.6167C8.06528 18.3125 7.41372 18.2129 6.78378 18.3392L7.5799 22.3078ZM6.69958 22.176C7.6215 22.6751 8.62825 23.0564 9.70213 23.3015L10.6027 19.3553C9.88281 19.191 9.22178 18.9387 8.6265 18.6164L6.69958 22.176ZM9.70213 23.3015C15.7477 24.6811 21.5616 21.2055 22.921 15.0396L18.9682 14.1681C18.1114 18.0544 14.5435 20.2546 10.6027 19.3553L9.70213 23.3015ZM22.921 15.0396C24.2777 8.88593 20.4948 3.23808 14.4596 1.86086L13.5591 5.80709C17.5104 6.70875 19.8277 10.2695 18.9682 14.1681L22.921 15.0396Z" fill="white" mask="url(#path-1-outside-1_1_241)"/>
</g>
<path fill-rule="evenodd" clip-rule="evenodd" d="M9.40188 12.1008V11.0432C9.40188 9.5829 10.5857 8.39909 12.046 8.39909C13.5063 8.39909 14.6901 9.5829 14.6901 11.0432V12.1008C15.2742 12.1008 15.7477 12.5744 15.7477 13.1585V15.8026C15.7477 16.3867 15.2742 16.8602 14.6901 16.8602H9.40188C8.81776 16.8602 8.34424 16.3867 8.34424 15.8026V13.1585C8.34424 12.5744 8.81776 12.1008 9.40188 12.1008ZM13.6325 11.0432V12.1008H10.4595V11.0432C10.4595 10.167 11.1698 9.45674 12.046 9.45674C12.9222 9.45674 13.6325 10.167 13.6325 11.0432Z" fill="url(#paint1_linear_1_241)"/>
<defs>
<filter id="filter0_d_1_241" x="-0.66964" y="0.463875" width="25.4325" height="25.2738" filterUnits="userSpaceOnUse" color-interpolation-filters="sRGB">
<feFlood flood-opacity="0" result="BackgroundImageFix"/>
<feColorMatrix in="SourceAlpha" type="matrix" values="0 0 0 0 0 0 0 0 0 0 0 0 0 0 0 0 0 0 127 0" result="hardAlpha"/>
<feOffset dy="0.469911"/>
<feGaussianBlur stdDeviation="0.783184"/>
<feComposite in2="hardAlpha" operator="out"/>
<feColorMatrix type="matrix" values="0 0 0 0 0.0836556 0 0 0 0 0.02875 0 0 0 0 0.15 0 0 0 0.18 0"/>
<feBlend mode="normal" in2="BackgroundImageFix" result="effect1_dropShadow_1_241"/>
<feBlend mode="normal" in="SourceGraphic" in2="effect1_dropShadow_1_241" result="shape"/>
</filter>
<linearGradient id="paint0_linear_1_241" x1="-0.837573" y1="-1.45355" x2="22.074" y2="-0.750634" gradientUnits="userSpaceOnUse">
<stop stop-color="#40BEBE"/>
<stop offset="1" stop-color="#2361E6"/>
</linearGradient>
<linearGradient id="paint1_linear_1_241" x1="12.6094" y1="12.6303" x2="15.3437" y2="16.4751" gradientUnits="userSpaceOnUse">
<stop stop-color="white"/>
<stop offset="1" stop-color="white" stop-opacity="0"/>
</linearGradient>
</defs>
</svg>
