<svg width="24" height="25" viewBox="0 0 24 25" fill="none" xmlns="http://www.w3.org/2000/svg">
<g filter="url(#filter0_d_1_226)">
<mask id="path-1-outside-1_1_226" maskUnits="userSpaceOnUse" x="-0.396973" y="0.279686" width="24" height="24" fill="black">
<rect fill="white" x="-0.396973" y="0.279686" width="24" height="24"/>
<path d="M14.015 3.53732C8.87659 2.36475 4.04927 5.28511 2.90894 10.4574C2.31247 13.1628 2.54885 15.4055 3.96766 17.4252C4.08674 17.5949 4.13478 17.8055 4.09604 18.0103L3.42638 20.9924C3.32616 21.5226 3.78522 21.9872 4.3057 21.8826L6.98889 20.5064C7.15755 20.4726 7.33235 20.499 7.48408 20.5812C8.26474 21.0038 9.12288 21.3299 10.0458 21.5405C15.1842 22.7131 20.0115 19.7927 21.1519 14.6204C22.2922 9.44813 19.1534 4.7099 14.015 3.53732Z"/>
</mask>
<path d="M14.015 3.53732C8.87659 2.36475 4.04927 5.28511 2.90894 10.4574C2.31247 13.1628 2.54885 15.4055 3.96766 17.4252C4.08674 17.5949 4.13478 17.8055 4.09604 18.0103L3.42638 20.9924C3.32616 21.5226 3.78522 21.9872 4.3057 21.8826L6.98889 20.5064C7.15755 20.4726 7.33235 20.499 7.48408 20.5812C8.26474 21.0038 9.12288 21.3299 10.0458 21.5405C15.1842 22.7131 20.0115 19.7927 21.1519 14.6204C22.2922 9.44813 19.1534 4.7099 14.015 3.53732Z" fill="url(#paint0_linear_1_226)"/>
<path d="M14.015 3.53732L13.5516 5.56781L14.015 3.53732ZM3.96766 17.4252L5.67242 16.2288L5.67189 16.2281L3.96766 17.4252ZM4.09604 18.0103L6.12813 18.4666L6.13588 18.4321L6.14245 18.3973L4.09604 18.0103ZM3.42638 20.9924L1.3943 20.5361L1.38652 20.5707L1.37993 20.6056L3.42638 20.9924ZM4.3057 21.8826L4.71614 23.9244L4.99922 23.8675L5.25614 23.7357L4.3057 21.8826ZM6.98889 20.5064L6.57925 18.4644L6.29574 18.5213L6.03845 18.6533L6.98889 20.5064ZM7.48408 20.5812L6.49214 22.4125L6.4926 22.4128L7.48408 20.5812ZM14.4783 1.50683C8.25699 0.0871258 2.27403 3.66373 0.875091 10.009L4.94278 10.9058C5.82451 6.90648 9.49619 4.64237 13.5516 5.56781L14.4783 1.50683ZM0.875091 10.009C0.193205 13.1019 0.414405 15.9902 2.26343 18.6224L5.67189 16.2281C4.68329 14.8207 4.43173 13.2238 4.94278 10.9058L0.875091 10.009ZM2.26291 18.6216C2.06901 18.3453 1.98075 17.9875 2.04963 17.6232L6.14245 18.3973C6.28881 17.6235 6.10448 16.8444 5.67242 16.2288L2.26291 18.6216ZM2.06396 17.554L1.3943 20.5361L5.45846 21.4487L6.12813 18.4666L2.06396 17.554ZM1.37993 20.6056C1.01626 22.5295 2.68947 24.3318 4.71614 23.9244L3.89525 19.8407C4.88097 19.6426 5.63606 20.5157 5.47283 21.3792L1.37993 20.6056ZM5.25614 23.7357L7.93933 22.3596L6.03845 18.6533L3.35526 20.0294L5.25614 23.7357ZM7.39853 22.5484C7.08758 22.6108 6.76667 22.5612 6.49214 22.4125L8.47603 18.7499C7.89802 18.4369 7.22751 18.3344 6.57925 18.4644L7.39853 22.5484ZM6.4926 22.4128C7.44133 22.9264 8.47736 23.3188 9.58247 23.571L10.5092 19.51C9.7684 19.341 9.08815 19.0813 8.47556 18.7497L6.4926 22.4128ZM9.58247 23.571C15.8038 24.9907 21.7868 21.4141 23.1857 15.0688L19.118 14.172C18.2363 18.1713 14.5646 20.4355 10.5092 19.51L9.58247 23.571ZM23.1857 15.0688C24.5819 8.7362 20.689 2.9241 14.4783 1.50683L13.5516 5.56781C17.6178 6.4957 20.0026 10.1601 19.118 14.172L23.1857 15.0688Z" fill="white" mask="url(#path-1-outside-1_1_226)"/>
</g>
<path d="M14.949 13.4693C15.2123 13.1888 15.1011 12.7304 14.7386 12.6017L12.8314 11.9249C12.5494 11.8248 12.4049 11.5123 12.5114 11.2327L13.6139 8.33645C13.8218 7.79044 13.1268 7.35582 12.7269 7.78174L9.0403 11.7081C8.77701 11.9885 8.8882 12.447 9.25069 12.5756L11.1579 13.2525C11.4399 13.3526 11.5844 13.6651 11.4779 13.9447L10.3753 16.8409C10.1675 17.387 10.8625 17.8216 11.2624 17.3957L14.949 13.4693Z" fill="#7E4D1F"/>
<defs>
<filter id="filter0_d_1_226" x="-1.09093" y="0.0692183" width="26.1723" height="26.0088" filterUnits="userSpaceOnUse" color-interpolation-filters="sRGB">
<feFlood flood-opacity="0" result="BackgroundImageFix"/>
<feColorMatrix in="SourceAlpha" type="matrix" values="0 0 0 0 0 0 0 0 0 0 0 0 0 0 0 0 0 0 127 0" result="hardAlpha"/>
<feOffset dy="0.483576"/>
<feGaussianBlur stdDeviation="0.805961"/>
<feComposite in2="hardAlpha" operator="out"/>
<feColorMatrix type="matrix" values="0 0 0 0 0.0836556 0 0 0 0 0.02875 0 0 0 0 0.15 0 0 0 0.18 0"/>
<feBlend mode="normal" in2="BackgroundImageFix" result="effect1_dropShadow_1_226"/>
<feBlend mode="normal" in="SourceGraphic" in2="effect1_dropShadow_1_226" result="shape"/>
</filter>
<linearGradient id="paint0_linear_1_226" x1="11.9943" y1="3.27969" x2="21.5836" y2="18.4195" gradientUnits="userSpaceOnUse">
<stop stop-color="#E6AA2B"/>
<stop offset="0.489583" stop-color="#FFE389"/>
<stop offset="0.958333" stop-color="#FAD623"/>
</linearGradient>
</defs>
</svg>
