<svg width="10" height="10" viewBox="0 0 10 10" fill="none" xmlns="http://www.w3.org/2000/svg">
<path fill-rule="evenodd" clip-rule="evenodd" d="M1.00822 1.00828C1.21048 0.806017 1.53841 0.806018 1.74068 1.00828L4.99994 4.26754L8.2592 1.00828C8.46146 0.806017 8.78939 0.806017 8.99166 1.00828C9.19392 1.21054 9.19392 1.53848 8.99166 1.74074L5.7324 5L8.99166 8.25926C9.19392 8.46152 9.19392 8.78946 8.99166 8.99172C8.78939 9.19398 8.46146 9.19398 8.2592 8.99172L4.99994 5.73246L1.74068 8.99172C1.53841 9.19398 1.21048 9.19398 1.00822 8.99172C0.805953 8.78946 0.805953 8.46152 1.00822 8.25926L4.26748 5L1.00822 1.74074C0.805953 1.53848 0.805953 1.21054 1.00822 1.00828Z" fill="#1C192B"/>
<path fill-rule="evenodd" clip-rule="evenodd" d="M0.583952 0.584016C1.02053 0.147438 1.72836 0.14744 2.16494 0.584017L4.99994 3.41901L7.83493 0.584016C8.27151 0.147439 8.97934 0.147438 9.41592 0.584016C9.8525 1.02059 9.8525 1.72843 9.41592 2.165L6.58092 5L9.41592 7.835C9.8525 8.27157 9.8525 8.97941 9.41592 9.41598C8.97934 9.85256 8.27151 9.85256 7.83493 9.41598L4.99994 6.58099L2.16494 9.41598C1.72836 9.85256 1.02053 9.85256 0.583952 9.41598C0.147375 8.97941 0.147374 8.27157 0.583952 7.835L3.41895 5L0.583952 2.165C0.147375 1.72843 0.147375 1.02059 0.583952 0.584016ZM1.74068 1.00828C1.53841 0.806018 1.21048 0.806017 1.00822 1.00828C0.805953 1.21054 0.805953 1.53848 1.00822 1.74074L4.26748 5L1.00822 8.25926C0.805953 8.46152 0.805953 8.78946 1.00822 8.99172C1.21048 9.19398 1.53841 9.19398 1.74068 8.99172L4.99994 5.73246L8.2592 8.99172C8.46146 9.19398 8.78939 9.19398 8.99166 8.99172C9.19392 8.78946 9.19392 8.46152 8.99166 8.25926L5.7324 5L8.99166 1.74074C9.19392 1.53848 9.19392 1.21054 8.99166 1.00828C8.78939 0.806017 8.46146 0.806017 8.2592 1.00828L4.99994 4.26754L1.74068 1.00828Z" fill="#1C192B"/>
</svg>
