<svg width="24" height="27" viewBox="0 0 24 27" fill="none" xmlns="http://www.w3.org/2000/svg">
<path fill-rule="evenodd" clip-rule="evenodd" d="M12.0069 21.2766C17.2843 21.2766 21.5625 16.9984 21.5625 11.721C21.5625 6.44361 17.2843 2.16543 12.0069 2.16543C6.72948 2.16543 2.4513 6.44361 2.4513 11.721C2.4513 13.1282 2.75549 14.4644 3.30171 15.6674L1.18294 19.9049C0.833956 20.6029 1.47509 21.385 2.22794 21.1796L7.0189 19.873C8.47083 20.7633 10.1789 21.2766 12.0069 21.2766Z" fill="#7E7D84"/>
<path d="M3.30171 15.6674L4.06197 16.0475L4.24323 15.685L4.07566 15.316L3.30171 15.6674ZM1.18294 19.9049L0.422676 19.5248H0.422676L1.18294 19.9049ZM2.22794 21.1796L2.45159 21.9997H2.45159L2.22794 21.1796ZM7.0189 19.873L7.46322 19.1484L7.14987 18.9563L6.79525 19.053L7.0189 19.873ZM20.7125 11.721C20.7125 16.529 16.8148 20.4266 12.0069 20.4266V22.1266C17.7537 22.1266 22.4125 17.4679 22.4125 11.721H20.7125ZM12.0069 3.01543C16.8148 3.01543 20.7125 6.91305 20.7125 11.721H22.4125C22.4125 5.97417 17.7537 1.31543 12.0069 1.31543V3.01543ZM3.3013 11.721C3.3013 6.91305 7.19892 3.01543 12.0069 3.01543V1.31543C6.26004 1.31543 1.6013 5.97417 1.6013 11.721H3.3013ZM4.07566 15.316C3.57856 14.2212 3.3013 13.0046 3.3013 11.721H1.6013C1.6013 13.2519 1.93242 14.7077 2.52776 16.0188L4.07566 15.316ZM1.9432 20.2851L4.06197 16.0475L2.54145 15.2873L0.422676 19.5248L1.9432 20.2851ZM2.00429 20.3596C1.99174 20.363 1.98473 20.3631 1.98217 20.363C1.97938 20.3629 1.97727 20.3624 1.97505 20.3617C1.96987 20.3599 1.95964 20.3544 1.94959 20.3421C1.93954 20.3299 1.93617 20.3188 1.93543 20.3133C1.93512 20.311 1.93511 20.3089 1.93556 20.3061C1.93597 20.3036 1.93739 20.2967 1.9432 20.2851L0.422676 19.5248C-0.254888 20.8799 0.989892 22.3983 2.45159 21.9997L2.00429 20.3596ZM6.79525 19.053L2.00429 20.3596L2.45159 21.9997L7.24254 20.6931L6.79525 19.053ZM12.0069 20.4266C10.3402 20.4266 8.78527 19.9591 7.46322 19.1484L6.57457 20.5976C8.15639 21.5676 10.0177 22.1266 12.0069 22.1266V20.4266Z" fill="#7E7D84"/>
<ellipse cx="9.4012" cy="11.7212" rx="1.73738" ry="1.73738" fill="white"/>
<circle cx="14.6136" cy="11.7212" r="1.73738" fill="white"/>
<g clip-path="url(#clip0_1_201)">
<path d="M16.3802 24.2382L16.6527 24.851C16.7337 25.0334 16.8659 25.1884 17.0332 25.2972C17.2006 25.4059 17.3959 25.4638 17.5955 25.4638C17.7951 25.4638 17.9904 25.4059 18.1577 25.2972C18.3251 25.1884 18.4573 25.0334 18.5383 24.851L18.8107 24.2382C18.9077 24.0207 19.0709 23.8394 19.277 23.7201C19.4843 23.6005 19.7242 23.5496 19.9623 23.5746L20.629 23.6455C20.8274 23.6665 21.0277 23.6295 21.2056 23.5389C21.3834 23.4484 21.5311 23.3082 21.6308 23.1353C21.7307 22.9625 21.7783 22.7645 21.7678 22.5653C21.7573 22.366 21.6892 22.1741 21.5718 22.0128L21.1771 21.4704C21.0365 21.2758 20.9614 21.0416 20.9626 20.8016C20.9626 20.5623 21.0384 20.329 21.1791 20.1355L21.5739 19.5931C21.6913 19.4318 21.7594 19.2398 21.7699 19.0406C21.7803 18.8413 21.7328 18.6433 21.6329 18.4705C21.5332 18.2977 21.3855 18.1575 21.2076 18.0669C21.0298 17.9763 20.8295 17.9393 20.6311 17.9603L19.9644 18.0313C19.7263 18.0563 19.4864 18.0053 19.279 17.8857C19.0726 17.7657 18.9094 17.5835 18.8128 17.3651L18.5383 16.7523C18.4573 16.5699 18.3251 16.4149 18.1577 16.3061C17.9904 16.1973 17.7951 16.1394 17.5955 16.1395C17.3959 16.1394 17.2006 16.1973 17.0332 16.3061C16.8659 16.4149 16.7337 16.5699 16.6527 16.7523L16.3802 17.3651C16.2837 17.5835 16.1205 17.7657 15.914 17.8857C15.7066 18.0053 15.4667 18.0563 15.2287 18.0313L14.5599 17.9603C14.3614 17.9393 14.1612 17.9763 13.9833 18.0669C13.8055 18.1575 13.6578 18.2977 13.558 18.4705C13.4582 18.6433 13.4106 18.8413 13.4211 19.0406C13.4316 19.2398 13.4997 19.4318 13.6171 19.5931L14.0118 20.1355C14.1526 20.329 14.2284 20.5623 14.2284 20.8016C14.2284 21.041 14.1526 21.2742 14.0118 21.4678L13.6171 22.0102C13.4997 22.1715 13.4316 22.3634 13.4211 22.5627C13.4106 22.7619 13.4582 22.96 13.558 23.1327C13.6579 23.3055 13.8056 23.4456 13.9834 23.5362C14.1612 23.6267 14.3615 23.6638 14.5599 23.643L15.2266 23.572C15.4647 23.547 15.7046 23.5979 15.9119 23.7176C16.1192 23.8372 16.2831 24.0194 16.3802 24.2382Z" fill="#7E7D84"/>
<path d="M17.5946 22.2003C18.3671 22.2003 18.9933 21.5741 18.9933 20.8016C18.9933 20.0292 18.3671 19.403 17.5946 19.403C16.8222 19.403 16.196 20.0292 16.196 20.8016C16.196 21.5741 16.8222 22.2003 17.5946 22.2003Z" fill="url(#paint0_linear_1_201)"/>
<path d="M15.9233 24.4413L15.9232 24.441C15.8691 24.319 15.7776 24.2174 15.6621 24.1507C15.5462 24.0838 15.4121 24.0553 15.279 24.0692C15.2789 24.0692 15.2789 24.0692 15.2788 24.0693L14.6128 24.1401L14.6122 24.1402C14.3176 24.1712 14.0204 24.1161 13.7565 23.9817C13.4926 23.8473 13.2733 23.6393 13.1252 23.3829C12.9769 23.1264 12.9062 22.8323 12.9218 22.5364C12.9374 22.2405 13.0385 21.9555 13.2129 21.7159L13.6074 21.1737C13.6075 21.1737 13.6075 21.1736 13.6076 21.1736C13.6861 21.0655 13.7284 20.9353 13.7284 20.8017L13.7284 20.8015C13.7284 20.6679 13.6861 20.5378 13.6076 20.4297L15.9233 24.4413ZM15.9233 24.4413L16.1957 25.0539M15.9233 24.4413L16.1957 25.0539M21.4626 20.8015L21.4626 20.8041C21.4619 20.9379 21.5037 21.0683 21.5818 21.1769C21.582 21.1771 21.5822 21.1773 21.5824 21.1776L21.976 21.7185C21.976 21.7185 21.976 21.7185 21.9761 21.7185C22.1504 21.9581 22.2515 22.2431 22.2671 22.539C22.2827 22.8348 22.2121 23.1287 22.0639 23.3852C22.0639 23.3853 22.0638 23.3854 22.0637 23.3855L21.6308 23.1353L21.4626 20.8015ZM21.4626 20.8015C21.4626 20.6679 21.5049 20.5376 21.5835 20.4295L21.9781 19.8873C21.9781 19.8873 21.9781 19.8873 21.9781 19.8873C22.1525 19.6478 22.2536 19.3627 22.2692 19.0668C22.2847 18.7709 22.2141 18.4769 22.0658 18.2203C21.9177 17.9638 21.6985 17.7558 21.4345 17.6214C21.1705 17.4869 20.8731 17.4319 20.5785 17.4631L20.5781 17.4631M21.4626 20.8015L20.5781 17.4631M20.5781 17.4631L19.9121 17.534M20.5781 17.4631L19.9121 17.534M19.9121 17.534C19.912 17.534 19.912 17.534 19.9118 17.534C19.7791 17.5479 19.6453 17.5195 19.5295 17.453M19.9121 17.534L19.5295 17.453M19.5295 17.453C19.4147 17.3861 19.3239 17.2846 19.2701 17.163L19.2701 17.163L19.2691 17.1607L18.9952 16.5494C18.9951 16.5491 18.995 16.5488 18.9949 16.5485C18.8746 16.2781 18.6785 16.0482 18.4302 15.8869C18.1818 15.7254 17.8919 15.6394 17.5956 15.6395L19.5295 17.453ZM15.6635 17.453C15.7784 17.3861 15.8691 17.2846 15.9229 17.163L15.9233 17.162L16.1957 16.5494L15.6635 17.453ZM15.6635 17.453C15.5477 17.5196 15.4139 17.5479 15.2811 17.534C15.281 17.534 15.281 17.534 15.2809 17.534L15.6635 17.453ZM16.1957 25.0539C16.1957 25.054 16.1958 25.054 16.1958 25.0541M16.1957 25.0539L16.1958 25.0541M16.1958 25.0541C16.3161 25.3249 16.5123 25.5549 16.7607 25.7164M16.1958 25.0541L16.7607 25.7164M16.7607 25.7164C17.0092 25.8779 17.2991 25.9638 17.5954 25.9638L16.7607 25.7164ZM13.2129 19.8873L13.6074 20.4295L13.558 18.4705L13.1252 18.2203C13.1251 18.2204 13.125 18.2206 13.125 18.2207C12.9768 18.4771 12.9062 18.7711 12.9218 19.0668C12.9374 19.3627 13.0385 19.6478 13.2128 19.8873C13.2128 19.8873 13.2128 19.8873 13.2129 19.8873ZM20.5761 24.1427L20.5764 24.1428L17.5956 25.9638C17.8919 25.9638 18.1818 25.8779 18.4302 25.7164C18.6787 25.5549 18.875 25.3247 18.9952 25.0539L19.2674 24.4418C19.2674 24.4417 19.2675 24.4416 19.2675 24.4415C19.3216 24.3205 19.4125 24.2195 19.5272 24.153C19.643 24.0863 19.777 24.0579 19.9099 24.0718C19.91 24.0718 19.91 24.0718 19.9101 24.0718L20.5761 24.1427Z" stroke="white" stroke-linecap="round" stroke-linejoin="round"/>
</g>
<defs>
<linearGradient id="paint0_linear_1_201" x1="21.9725" y1="26.1378" x2="12.7303" y2="16.8725" gradientUnits="userSpaceOnUse">
<stop stop-color="white"/>
<stop offset="1" stop-color="#FAFAFF"/>
</linearGradient>
<clipPath id="clip0_1_201">
<rect width="11.1892" height="11.1892" fill="white" transform="translate(12 15.207)"/>
</clipPath>
</defs>
</svg>
