<svg width="22" height="19" viewBox="0 0 22 19" fill="none" xmlns="http://www.w3.org/2000/svg">
<path d="M1.5 9.44043H4.88197C5.56717 9.44043 6.19357 9.82756 6.5 10.4404C6.80643 11.0533 7.43283 11.4404 8.11803 11.4404H13.882C14.5672 11.4404 15.1936 11.0533 15.5 10.4404C15.8064 9.82756 16.4328 9.44043 17.118 9.44043H20.5M7.96656 1.44043H14.0334C15.1103 1.44043 15.6487 1.44043 16.1241 1.60439C16.5445 1.74939 16.9274 1.98603 17.2451 2.29718C17.6043 2.64903 17.8451 3.13063 18.3267 4.0938L20.4932 8.42693C20.6822 8.80492 20.7767 8.99391 20.8434 9.19198C20.9026 9.36788 20.9453 9.5489 20.971 9.73269C21 9.93966 21 10.151 21 10.5736V12.6404C21 14.3206 21 15.1607 20.673 15.8024C20.3854 16.3669 19.9265 16.8258 19.362 17.1134C18.7202 17.4404 17.8802 17.4404 16.2 17.4404H5.8C4.11984 17.4404 3.27976 17.4404 2.63803 17.1134C2.07354 16.8258 1.6146 16.3669 1.32698 15.8024C1 15.1607 1 14.3206 1 12.6404V10.5736C1 10.151 1 9.93966 1.02897 9.73269C1.05471 9.5489 1.09744 9.36788 1.15662 9.19198C1.22326 8.99391 1.31776 8.80491 1.50675 8.42693L3.67331 4.0938C4.1549 3.13062 4.3957 2.64903 4.75495 2.29718C5.07263 1.98603 5.45551 1.74939 5.87589 1.60439C6.35125 1.44043 6.88969 1.44043 7.96656 1.44043Z" stroke="#7E7D84" stroke-width="2" stroke-linecap="round" stroke-linejoin="round"/>
<path d="M20.5 16.207L21 9.70703H16.5L14.5 11.207H7L5.5 9.70703H1V10.707V12.707L0.5 13.707L1 15.707L2.5 17.207H14.5H18L20.5 16.207Z" fill="#7E7D84"/>
</svg>
