<svg width="24" height="25" viewBox="0 0 24 25" fill="none" xmlns="http://www.w3.org/2000/svg">
<path d="M12.0075 24.3657C12.6854 24.3644 13.3521 24.3072 14.0002 24.1988V17.2126L18.9532 22.1528C19.5002 21.7642 20.012 21.3321 20.4851 20.8601C20.9585 20.3881 21.393 19.8763 21.7825 19.3309L16.8293 14.3907H23.8339C23.9426 13.7444 24 13.0818 24 12.4044V12.3882C24 11.7107 23.9426 11.047 23.8339 10.4007H16.8282L21.7825 5.46171C21.393 4.91627 20.9585 4.40443 20.4865 3.93245H20.4851C20.012 3.46047 19.5002 3.0271 18.9546 2.63981L14.0002 7.58001V0.593752C13.3533 0.485392 12.6866 0.428186 12.0087 0.426756H11.9913C11.3132 0.428186 10.6491 0.485392 10.001 0.593752V7.58001L5.04804 2.63981C3.95419 3.41565 2.99788 4.3708 2.21868 5.46171L7.17185 10.4007H0.16733C0.0574454 11.0482 0 11.7145 0 12.3919V12.4267C0.00113864 12.6025 0.0126506 12.8173 0.0291855 13.0395L0.0342912 13.1063C0.0832496 13.7318 0.16733 14.3907 0.16733 14.3907H7.17185L2.21868 19.3309C2.60697 19.8763 3.04031 20.3869 3.51346 20.8576L3.51585 20.8601C3.98804 21.3321 4.501 21.7642 5.04804 22.1528L10.001 17.2126V24.1988C10.6491 24.3072 11.3146 24.3644 11.9937 24.3657H12.0075ZM12.0063 15.3882H11.9949C11.1034 15.3882 10.2496 15.225 9.46037 14.9287C9.16456 14.1428 9.0008 13.2911 8.99961 12.4019V12.3907C9.0008 11.5015 9.16456 10.6497 9.46156 9.86393C10.2496 9.56753 11.1034 9.40439 11.9949 9.40439H12.0063C12.8978 9.40439 13.7516 9.56753 14.5396 9.86393C14.8366 10.651 15.0004 11.5015 15.0004 12.3907V12.4019C15.0004 13.2911 14.8366 14.1428 14.5396 14.9287C13.7516 15.225 12.8978 15.3882 12.0063 15.3882Z" fill="#7E7D84"/>
</svg>
